<?xml version="1.0" encoding="utf-8"?>
<!-- Generator: Adobe Illustrator 15.0.0, SVG Export Plug-In . SVG Version: 6.00 Build 0)  -->
<!DOCTYPE svg PUBLIC "-//W3C//DTD SVG 1.1//EN" "http://www.w3.org/Graphics/SVG/1.1/DTD/svg11.dtd">
<svg version="1.1" id="Calque_1" xmlns="http://www.w3.org/2000/svg" xmlns:xlink="http://www.w3.org/1999/xlink" x="0px" y="0px"
	 width="113px" height="78px" viewBox="0 0 113 78" enable-background="new 0 0 113 78" xml:space="preserve">
<g>
	<path fill="#1E1E1C" stroke="#1E1E1C" stroke-width="3.6" stroke-miterlimit="10" d="M88.179,12.917
		c-0.016-0.255-0.086-0.51-0.223-0.746c-0.473-0.824-1.527-1.106-2.352-0.631L56.848,28.144L28.094,11.54
		c-0.824-0.476-1.879-0.193-2.354,0.631c-0.154,0.268-0.221,0.561-0.223,0.85c-0.002,0.025-0.008,0.051-0.008,0.078v34.2
		c0,0.023,0.006,0.047,0.006,0.074c0.004,0.59,0.305,1.166,0.855,1.484l29.617,17.1c0.266,0.154,0.563,0.23,0.859,0.23
		c0.299,0,0.596-0.076,0.863-0.23l15.784-9.113c0.824-0.475,1.105-1.529,0.629-2.354s-1.527-1.105-2.352-0.629l-14.925,8.615
		L28.953,46.371V16.015l27.035,15.608c0.266,0.154,0.563,0.231,0.859,0.231c0.299,0,0.596-0.077,0.863-0.231L84.769,16l-0.023,31.33
		c0,0.951,0.77,1.723,1.719,1.723h0.004c0.949,0,1.719-0.77,1.723-1.719l0.027-34.057C88.218,13.153,88.202,13.033,88.179,12.917z"
		/>
</g>
</svg>
