<?xml version="1.0" encoding="utf-8"?>
<!-- Generator: Adobe Illustrator 17.1.0, SVG Export Plug-In . SVG Version: 6.00 Build 0)  -->
<!DOCTYPE svg PUBLIC "-//W3C//DTD SVG 1.1//EN" "http://www.w3.org/Graphics/SVG/1.1/DTD/svg11.dtd">
<svg version="1.1" id="Calque_1" xmlns="http://www.w3.org/2000/svg" xmlns:xlink="http://www.w3.org/1999/xlink" x="0px" y="0px"
	 viewBox="0 0 113 78" enable-background="new 0 0 113 78" xml:space="preserve">
<path fill="#1E1E1C" d="M90,12.7c0-0.5-0.2-1-0.4-1.4c-0.6-1.1-1.8-1.8-3.1-1.8c-0.6,0-1.2,0.2-1.8,0.5L56.8,26.1L29,10
	c-0.5-0.3-1.1-0.5-1.8-0.5c-1.3,0-2.4,0.7-3.1,1.8c-0.3,0.5-0.4,1-0.5,1.6l0,34.4l0,0.2c0,1.2,0.7,2.3,1.8,2.9l29.6,17.1
	c0.5,0.3,1.1,0.5,1.8,0.5c0.6,0,1.2-0.2,1.8-0.5l15.8-9.1c1.7-1,2.3-3.1,1.3-4.8c-0.6-1.1-1.8-1.8-3-1.8c-0.6,0-1.2,0.2-1.8,0.5
	l-14,8.1L30.8,45.3V19.1l24.3,14c1.1,0.6,2.5,0.6,3.5,0L83,19.1l0,28.2c0,1.9,1.6,3.5,3.5,3.5c1.9,0,3.5-1.6,3.5-3.5l0-34.1
	C90,13.1,90,12.9,90,12.7z"/>
</svg>
